<svg xmlns="http://www.w3.org/2000/svg" width="100" height="30" viewBox="0 0 100 30">
    <g fill="none" fill-rule="nonzero">
        <rect width="100" height="30" fill="#000" rx="4"/>
        <g fill="#FFF">
            <path d="M21.317 14.655c-.021-2.388 1.955-3.55 2.045-3.603-1.119-1.632-2.854-1.855-3.463-1.873-1.458-.153-2.87.872-3.613.872-.757 0-1.9-.857-3.132-.832-1.585.025-3.068.942-3.881 2.368-1.679 2.906-.427 7.176 1.181 9.525.805 1.15 1.745 2.435 2.975 2.39 1.204-.05 1.653-.768 3.106-.768 1.44 0 1.861.767 3.116.739 1.292-.021 2.105-1.156 2.882-2.317.93-1.318 1.303-2.617 1.317-2.683-.03-.01-2.509-.957-2.533-3.818zM18.947 7.634c.647-.81 1.09-1.911.967-3.029-.937.042-2.109.648-2.784 1.44-.597.698-1.13 1.842-.992 2.917 1.052.079 2.133-.53 2.809-1.328z"/>
        </g>
        <g fill="#FFF">
            <path d="M38.737 23.336h-1.682l-.922-2.895H32.93l-.877 2.895h-1.638l3.173-9.857h1.96l3.189 9.857zm-2.881-4.11l-.834-2.574c-.088-.263-.253-.882-.497-1.857h-.03c-.096.42-.253 1.038-.468 1.857l-.818 2.574h2.647zM46.898 19.695c0 1.209-.327 2.164-.98 2.866-.585.624-1.312.936-2.18.936-.936 0-1.608-.336-2.018-1.009h-.03v3.745h-1.579v-7.665c0-.76-.02-1.54-.058-2.34h1.388l.089 1.127h.03c.526-.85 1.325-1.273 2.398-1.273.838 0 1.538.331 2.098.994.562.664.842 1.537.842 2.619zm-1.61.058c0-.692-.155-1.263-.467-1.712-.342-.468-.8-.702-1.375-.702-.39 0-.744.13-1.06.388-.317.259-.525.597-.622 1.017a2.068 2.068 0 0 0-.073.481v1.185c0 .517.159.954.476 1.31.317.356.729.534 1.235.534.595 0 1.058-.23 1.39-.687.331-.459.497-1.063.497-1.814zM55.073 19.695c0 1.209-.326 2.164-.98 2.866-.585.624-1.312.936-2.179.936-.936 0-1.609-.336-2.018-1.009h-.03v3.745h-1.579v-7.665c0-.76-.02-1.54-.058-2.34h1.389l.088 1.127h.03c.525-.85 1.325-1.273 2.398-1.273.838 0 1.538.331 2.1.994.559.664.84 1.537.84 2.619zm-1.609.058c0-.692-.156-1.263-.468-1.712-.342-.468-.799-.702-1.375-.702-.39 0-.743.13-1.06.388-.317.259-.524.597-.621 1.017a2.108 2.108 0 0 0-.073.481v1.185c0 .517.158.954.474 1.31.317.356.729.534 1.237.534.595 0 1.058-.23 1.389-.687.332-.459.497-1.063.497-1.814zM64.214 20.572c0 .838-.291 1.52-.875 2.047-.643.576-1.537.863-2.686.863-1.06 0-1.91-.204-2.554-.614l.365-1.316a4.33 4.33 0 0 0 2.283.63c.595 0 1.058-.135 1.39-.403.332-.269.497-.629.497-1.078 0-.4-.136-.737-.41-1.01-.271-.273-.725-.527-1.36-.762-1.725-.644-2.588-1.587-2.588-2.827 0-.81.303-1.475.908-1.992.603-.517 1.407-.776 2.413-.776.897 0 1.642.156 2.237.468l-.395 1.288c-.555-.303-1.183-.454-1.886-.454-.556 0-.99.137-1.301.41a1.17 1.17 0 0 0-.395.893c0 .39.15.711.453.965.263.234.74.487 1.434.76.848.342 1.47.741 1.872 1.199.399.456.598 1.027.598 1.709zM69.436 17.413h-1.741v3.451c0 .878.306 1.317.921 1.317.283 0 .517-.025.702-.074l.043 1.2c-.31.116-.72.174-1.228.174-.623 0-1.11-.19-1.463-.57-.35-.38-.526-1.02-.526-1.916v-3.583h-1.037v-1.185h1.037v-1.302l1.55-.468v1.77h1.742v1.186zM77.29 19.724c0 1.092-.313 1.99-.937 2.69-.654.723-1.522 1.083-2.604 1.083-1.043 0-1.873-.346-2.493-1.038-.619-.692-.929-1.565-.929-2.618 0-1.101.319-2.003.958-2.705.638-.702 1.499-1.053 2.58-1.053 1.044 0 1.883.346 2.516 1.038.606.672.909 1.54.909 2.603zm-1.639.05c0-.655-.14-1.217-.424-1.686-.33-.567-.804-.85-1.417-.85-.635 0-1.117.283-1.449.85-.283.47-.423 1.04-.423 1.716 0 .656.14 1.218.423 1.686.342.568.819.85 1.435.85.603 0 1.076-.288 1.417-.864.291-.478.438-1.046.438-1.701zM82.423 17.617a2.742 2.742 0 0 0-.498-.044c-.555 0-.985.21-1.287.63-.263.37-.395.838-.395 1.404v3.73h-1.579l.015-4.87c0-.82-.02-1.566-.059-2.238h1.376l.057 1.36h.044a2.43 2.43 0 0 1 .79-1.126 1.91 1.91 0 0 1 1.141-.38c.146 0 .278.01.395.028v1.506zM89.486 19.446c0 .283-.019.521-.058.716H84.69c.019.702.248 1.24.688 1.61.399.331.915.497 1.55.497a5.24 5.24 0 0 0 1.916-.336l.248 1.096c-.673.293-1.467.44-2.383.44-1.102 0-1.968-.325-2.597-.973-.628-.649-.943-1.519-.943-2.61 0-1.073.292-1.965.878-2.677.614-.76 1.443-1.14 2.486-1.14 1.024 0 1.8.38 2.326 1.14.417.604.627 1.35.627 2.237zm-1.506-.41c.01-.468-.093-.872-.307-1.214-.273-.439-.693-.658-1.258-.658-.516 0-.936.214-1.257.643-.263.342-.42.752-.468 1.229h3.29z"/>
        </g>
        <g fill="#FFF">
            <path d="M35.333 7.414c0 .872-.261 1.528-.783 1.969-.484.407-1.171.61-2.062.61-.441 0-.82-.019-1.135-.057V5.172a8.38 8.38 0 0 1 1.337-.1c.848 0 1.487.184 1.918.552.483.417.725 1.014.725 1.79zm-.818.022c0-.566-.15-.999-.45-1.301-.298-.302-.735-.453-1.31-.453-.245 0-.454.017-.626.05v3.622c.095.015.27.022.524.022.594 0 1.053-.166 1.376-.496.323-.33.486-.812.486-1.444zM39.673 8.176c0 .537-.153.977-.46 1.322-.321.355-.747.532-1.279.532-.513 0-.92-.17-1.225-.51-.304-.34-.456-.77-.456-1.287 0-.54.157-.984.47-1.329.315-.344.737-.517 1.269-.517.512 0 .924.17 1.236.51.296.33.445.757.445 1.279zm-.805.025c0-.322-.07-.599-.208-.83-.163-.278-.395-.417-.696-.417-.312 0-.55.14-.712.418-.14.23-.208.511-.208.843 0 .322.07.598.208.829.168.278.402.417.704.417.297 0 .53-.141.697-.425a1.57 1.57 0 0 0 .215-.835zM45.493 6.459L44.4 9.95h-.711l-.453-1.516a11.348 11.348 0 0 1-.28-1.128h-.015a8.26 8.26 0 0 1-.28 1.128L42.18 9.95h-.72L40.434 6.46h.798l.395 1.66c.095.392.174.766.237 1.12h.014c.058-.292.153-.663.288-1.113l.496-1.667h.632l.475 1.631c.115.398.208.781.28 1.15h.022c.052-.36.131-.742.237-1.15l.423-1.63h.763v-.001zM49.517 9.95h-.776v-2c0-.616-.234-.924-.704-.924a.7.7 0 0 0-.56.254.902.902 0 0 0-.216.599v2.07h-.777V7.457c0-.306-.01-.639-.028-.999h.683l.036.546h.021c.09-.17.225-.31.403-.422.21-.13.445-.196.703-.196.326 0 .597.105.813.316.268.259.402.645.402 1.158V9.95zM51.658 9.95h-.776V4.856h.776zM56.228 8.176c0 .537-.153.977-.46 1.322-.321.355-.748.532-1.28.532-.512 0-.92-.17-1.224-.51-.304-.34-.456-.77-.456-1.287 0-.54.156-.984.47-1.329.315-.344.737-.517 1.268-.517.513 0 .924.17 1.237.51.296.33.445.757.445 1.279zm-.806.025c0-.322-.07-.599-.208-.83-.162-.278-.395-.417-.695-.417-.313 0-.55.14-.712.418-.14.23-.208.511-.208.843 0 .322.07.598.208.829.168.278.402.417.704.417.296 0 .528-.141.696-.425.144-.235.215-.513.215-.835zM59.985 9.95h-.697l-.058-.402h-.021c-.239.32-.579.482-1.02.482-.33 0-.596-.106-.797-.317a.992.992 0 0 1-.273-.71c0-.427.177-.753.535-.978.357-.225.86-.335 1.506-.33V7.63c0-.46-.241-.69-.725-.69-.345 0-.648.087-.91.259l-.158-.51c.324-.2.725-.302 1.197-.302.913 0 1.37.482 1.37 1.445v1.286c0 .349.018.626.051.832zm-.806-1.2v-.538c-.856-.015-1.284.22-1.284.704 0 .182.049.318.149.41.1.09.227.135.379.135.17 0 .33-.054.475-.161a.661.661 0 0 0 .281-.55zM64.396 9.95h-.689l-.036-.56h-.021c-.22.426-.595.64-1.122.64-.42 0-.771-.166-1.049-.496-.278-.33-.416-.76-.416-1.286 0-.565.15-1.023.453-1.372a1.392 1.392 0 0 1 1.077-.49c.47 0 .797.158.984.475h.015V4.856h.777V9.01c0 .34.009.653.027.94zm-.804-1.472v-.582a.884.884 0 0 0-.302-.715.763.763 0 0 0-.52-.19.797.797 0 0 0-.683.345c-.165.23-.248.524-.248.883 0 .345.079.625.238.841.168.23.395.344.679.344a.748.748 0 0 0 .613-.287.957.957 0 0 0 .223-.64zM71.036 8.176c0 .537-.154.977-.46 1.322-.322.355-.747.532-1.28.532-.512 0-.92-.17-1.225-.51-.304-.34-.455-.77-.455-1.287 0-.54.156-.984.47-1.329.314-.344.736-.517 1.269-.517.512 0 .924.17 1.235.51.297.33.446.757.446 1.279zm-.805.025c0-.322-.07-.599-.208-.83-.164-.278-.395-.417-.697-.417-.311 0-.548.14-.712.418-.14.23-.208.511-.208.843 0 .322.07.598.208.829.168.278.402.417.705.417.296 0 .53-.141.697-.425.143-.235.215-.513.215-.835zM75.21 9.95h-.776v-2c0-.616-.234-.924-.704-.924a.698.698 0 0 0-.56.254.898.898 0 0 0-.216.599v2.07h-.777V7.457c0-.306-.009-.639-.027-.999h.681l.036.546h.022c.091-.17.226-.31.402-.422.211-.13.446-.196.705-.196.325 0 .596.105.811.316.27.259.403.645.403 1.158V9.95zM80.434 7.04h-.855v1.696c0 .431.152.647.453.647.14 0 .255-.012.346-.036l.02.589a1.744 1.744 0 0 1-.603.086c-.307 0-.545-.093-.718-.28-.173-.186-.26-.5-.26-.941V7.04h-.51v-.581h.51v-.64l.762-.23v.869h.854v.582h.001zM84.544 9.95h-.777V7.965c0-.626-.234-.94-.703-.94-.36 0-.606.182-.741.545a.975.975 0 0 0-.036.28v2.1h-.776V4.856h.776v2.105h.014a1.173 1.173 0 0 1 1.05-.574c.32 0 .587.105.798.316.263.263.395.654.395 1.171V9.95zM88.783 8.04c0 .139-.01.256-.029.351h-2.328c.01.345.121.608.337.79.197.163.451.245.762.245.345 0 .659-.055.942-.165l.121.539c-.331.144-.72.216-1.172.216-.54 0-.966-.16-1.275-.478-.31-.319-.462-.746-.462-1.282 0-.527.142-.966.43-1.315.301-.374.708-.56 1.221-.56.503 0 .884.186 1.142.56.208.296.311.663.311 1.098zm-.74-.201a1.045 1.045 0 0 0-.151-.597c-.135-.215-.34-.323-.618-.323a.737.737 0 0 0-.618.316 1.175 1.175 0 0 0-.23.604h1.616z"/>
        </g>
    </g>
</svg>
