<svg xmlns="http://www.w3.org/2000/svg" width="80" height="81" viewBox="0 0 80 81">
    <defs>
        <linearGradient id="a" x1="59.558%" x2="59.558%" y1="101.119%" y2="0%">
            <stop offset="0%" stop-color="#1B3281"/>
            <stop offset="4.92%" stop-color="#1B3281"/>
            <stop offset="5.35%" stop-color="#1B3281"/>
            <stop offset="32.01%" stop-color="#144497"/>
            <stop offset="49.29%" stop-color="#114A9F"/>
            <stop offset="100%" stop-color="#114A9F"/>
        </linearGradient>
        <linearGradient id="b" x1="59.98%" x2="38.606%" y1="8.143%" y2="84.335%">
            <stop offset="0%" stop-color="#FDB913"/>
            <stop offset="3.44%" stop-color="#FDBD17"/>
            <stop offset="35.52%" stop-color="#FEDB36"/>
            <stop offset="62.67%" stop-color="#FFED49"/>
            <stop offset="81.49%" stop-color="#FFF450"/>
            <stop offset="100%" stop-color="#FFF450"/>
        </linearGradient>
        <linearGradient id="c" x1="50.615%" x2="50.615%" y1="147.286%" y2="-3.674%">
            <stop offset="0%" stop-color="#114A9F"/>
            <stop offset="2.88%" stop-color="#0F52A4"/>
            <stop offset="17.51%" stop-color="#0974BC"/>
            <stop offset="31.42%" stop-color="#048CCE"/>
            <stop offset="44.17%" stop-color="#019BD8"/>
            <stop offset="54.69%" stop-color="#00A0DC"/>
            <stop offset="100%" stop-color="#26C0FA"/>
        </linearGradient>
    </defs>
    <g fill="none" fill-rule="evenodd">
        <path fill="url(#a)" d="M52.943 52.938c-7.02 7.016-40.666 7.016-47.681 0-7.016-7.02-7.016-40.661 0-47.676 7.015-7.016 40.661-7.016 47.681 0 7.01 7.015 7.01 40.656 0 47.676" transform="translate(10 11)"/>
        <path fill="url(#b)" d="M14.683 49.75l-.019.019c-1.546 1.528-4.14 1.528-5.681 0-.01-.005-.014-.014-.023-.019-5.793-5.797-5.793-33.558 0-39.35.009-.01.013-.019.023-.023 1.541-1.528 4.135-1.528 5.681 0 .005.009.014.013.019.023 5.797 5.792 5.797 33.553 0 39.35" transform="translate(10 11)"/>
        <path fill="url(#c)" d="M38.317 21.046a2.586 2.586 0 0 1 2.585-2.584h5.173c1.431 0 2.59 1.158 2.59 2.584v5.174c0 1.43-1.159 2.59-2.59 2.59a7.762 7.762 0 0 1-7.758-7.764zm2.585 20.696a2.586 2.586 0 0 1-2.585-2.585 7.762 7.762 0 0 1 7.758-7.763c1.431 0 2.59 1.158 2.59 2.584v5.179a2.587 2.587 0 0 1-2.59 2.585h-5.173zm-5.17-2.585a2.586 2.586 0 0 1-2.584 2.585h-5.174a2.587 2.587 0 0 1-2.59-2.585v-5.179a2.587 2.587 0 0 1 2.59-2.584 7.762 7.762 0 0 1 7.758 7.763zm-2.584-20.695a2.586 2.586 0 0 1 2.584 2.584 7.762 7.762 0 0 1-7.758 7.763 2.588 2.588 0 0 1-2.59-2.589v-5.174a2.587 2.587 0 0 1 2.59-2.584h5.174z" transform="translate(10 11)"/>
    </g>
</svg>
