<?xml version="1.0" encoding="UTF-8"?>
<svg width="178px" height="24px" viewBox="0 0 178 24" version="1.1" xmlns="http://www.w3.org/2000/svg" xmlns:xlink="http://www.w3.org/1999/xlink">
    <!-- Generator: Sketch 61.2 (89653) - https://sketch.com -->
    <title>ezCloudhotel</title>
    <desc>Created with Sketch.</desc>
    <g id="Miscellaneous" stroke="none" stroke-width="1" fill="none" fill-rule="evenodd">
        <g id="Login-/-Logo" transform="translate(-5.000000, -88.000000)" fill-rule="nonzero">
            <g id="Group" transform="translate(5.000000, 0.000000)">
                <g id="ezCloudhotel" transform="translate(0.555000, 88.380000)">
                    <path d="M7.83,22.86 C8.47,22.86 9.22,22.78 10.08,22.62 C10.94,22.46 11.68,22.215 12.3,21.885 C12.92,21.555 13.23,21.16 13.23,20.7 C13.23,20.5 13.145,20.215 12.975,19.845 C12.805,19.475 12.595,19.145 12.345,18.855 C12.095,18.565 11.87,18.42 11.67,18.42 C11.55,18.42 11.33,18.5 11.01,18.66 C10.51,18.86 10.03,19.025 9.57,19.155 C9.11,19.285 8.6,19.35 8.04,19.35 C7,19.35 6.19,19.11 5.61,18.63 C5.03,18.15 4.69,17.34 4.59,16.2 L4.59,16.2 L12.24,16.2 C12.44,16.2 12.745,15.965 13.155,15.495 C13.565,15.025 13.77,14.67 13.77,14.43 C13.77,12.15 13.245,10.29 12.195,8.85 C11.145,7.41 9.51,6.69 7.29,6.69 C5.01,6.69 3.225,7.35 1.935,8.67 C0.645,9.99 1.95399252e-14,12.06 1.95399252e-14,14.88 C1.95399252e-14,17.38 0.645,19.335 1.935,20.745 C3.225,22.155 5.19,22.86 7.83,22.86 Z M9.45,13.23 L4.59,13.23 C4.91,11.21 5.81,10.2 7.29,10.2 C8.01,10.2 8.55,10.475 8.91,11.025 C9.27,11.575 9.45,12.31 9.45,13.23 L9.45,13.23 Z M27.81,22.62 C28.13,22.62 28.36,22.5 28.5,22.26 C28.64,22.02 28.71,21.64 28.71,21.12 L28.71,21.12 L28.71,20.61 C28.71,20.09 28.64,19.71 28.5,19.47 C28.36,19.23 28.13,19.11 27.81,19.11 L27.81,19.11 L21.66,19.11 L28.5,9.69 C28.56,9.59 28.59,9.44 28.59,9.24 C28.59,8.82 28.485,8.33 28.275,7.77 C28.065,7.21 27.88,6.93 27.72,6.93 L27.72,6.93 L17.1,6.93 C16.78,6.93 16.55,7.05 16.41,7.29 C16.27,7.53 16.2,7.91 16.2,8.43 L16.2,8.43 L16.2,8.94 C16.2,9.46 16.27,9.84 16.41,10.08 C16.55,10.32 16.78,10.44 17.1,10.44 L17.1,10.44 L22.68,10.44 L15.81,19.92 C15.75,20 15.72,20.14 15.72,20.34 C15.72,20.76 15.82,21.245 16.02,21.795 C16.22,22.345 16.41,22.62 16.59,22.62 L16.59,22.62 L27.81,22.62 Z" id="ez" fill="#00A0DC"></path>
                    <path d="M40.8,22.86 C41.74,22.86 42.75,22.765 43.83,22.575 C44.91,22.385 45.78,22.1 46.44,21.72 C47.14,21.32 47.49,20.86 47.49,20.34 C47.49,20.14 47.405,19.825 47.235,19.395 C47.065,18.965 46.845,18.58 46.575,18.24 C46.305,17.9 46.02,17.73 45.72,17.73 C45.6,17.73 45.38,17.81 45.06,17.97 C44.44,18.25 43.8,18.48 43.14,18.66 C42.48,18.84 41.7,18.93 40.8,18.93 C37.38,18.93 35.67,16.65 35.67,12.09 C35.67,9.83 36.095,8.14 36.945,7.02 C37.795,5.9 39.1,5.34 40.86,5.34 C41.7,5.34 42.42,5.41 43.02,5.55 C43.62,5.69 44.13,5.85 44.55,6.03 C44.97,6.21 45.21,6.3 45.27,6.3 C45.51,6.3 45.785,6.125 46.095,5.775 C46.405,5.425 46.67,5.025 46.89,4.575 C47.11,4.125 47.22,3.76 47.22,3.48 C47.22,3.14 46.96,2.82 46.44,2.52 C45.86,2.18 45.05,1.905 44.01,1.695 C42.97,1.485 41.95,1.38 40.95,1.38 C34.27,1.38 30.93,4.94 30.93,12.06 C30.93,15.76 31.735,18.485 33.345,20.235 C34.955,21.985 37.44,22.86 40.8,22.86 Z M54.42,22.86 C56.34,22.86 57.3,22.37 57.3,21.39 C57.3,21.27 57.26,21.03 57.18,20.67 C57.1,20.31 56.99,19.98 56.85,19.68 C56.71,19.38 56.55,19.23 56.37,19.23 C56.27,19.23 56.135,19.25 55.965,19.29 C55.795,19.33 55.66,19.35 55.56,19.35 C55.18,19.35 54.905,19.25 54.735,19.05 C54.565,18.85 54.48,18.52 54.48,18.06 L54.48,18.06 L54.48,0.96 C54.48,0.32 53.88,2.84217094e-13 52.68,2.84217094e-13 L52.68,2.84217094e-13 L51.84,2.84217094e-13 C50.64,2.84217094e-13 50.04,0.32 50.04,0.96 L50.04,0.96 L50.04,18 C50.04,21.24 51.5,22.86 54.42,22.86 Z M65.61,22.86 C67.99,22.86 69.795,22.165 71.025,20.775 C72.255,19.385 72.87,17.38 72.87,14.76 C72.87,12.14 72.255,10.14 71.025,8.76 C69.795,7.38 67.99,6.69 65.61,6.69 C63.23,6.69 61.42,7.38 60.18,8.76 C58.94,10.14 58.32,12.14 58.32,14.76 C58.32,17.38 58.94,19.385 60.18,20.775 C61.42,22.165 63.23,22.86 65.61,22.86 Z M65.61,19.35 C63.75,19.35 62.82,17.82 62.82,14.76 C62.82,13.24 63.05,12.1 63.51,11.34 C63.97,10.58 64.67,10.2 65.61,10.2 C66.55,10.2 67.245,10.58 67.695,11.34 C68.145,12.1 68.37,13.24 68.37,14.76 C68.37,16.28 68.145,17.425 67.695,18.195 C67.245,18.965 66.55,19.35 65.61,19.35 Z M80.31,22.86 C81.23,22.86 82.085,22.64 82.875,22.2 C83.665,21.76 84.3,21.22 84.78,20.58 C84.8,20.7 84.845,20.93 84.915,21.27 C84.985,21.61 85.09,21.925 85.23,22.215 C85.37,22.505 85.62,22.65 85.98,22.65 C86.6,22.65 87.315,22.57 88.125,22.41 C88.935,22.25 89.34,22.01 89.34,21.69 C89.34,21.51 89.31,21.29 89.25,21.03 C89.17,20.45 89.105,19.92 89.055,19.44 C89.005,18.96 88.98,18.26 88.98,17.34 L88.98,7.83 C88.98,7.19 88.38,6.87 87.18,6.87 L87.18,6.87 L86.34,6.87 C85.14,6.87 84.54,7.19 84.54,7.83 L84.54,7.83 L84.54,17.46 C84.3,17.92 83.975,18.325 83.565,18.675 C83.155,19.025 82.68,19.2 82.14,19.2 C81.5,19.2 81.04,19.045 80.76,18.735 C80.48,18.425 80.34,17.96 80.34,17.34 L80.34,17.34 L80.34,7.83 C80.34,7.19 79.74,6.87 78.54,6.87 L78.54,6.87 L77.7,6.87 C76.5,6.87 75.9,7.19 75.9,7.83 L75.9,7.83 L75.9,18 C75.9,19.66 76.26,20.885 76.98,21.675 C77.7,22.465 78.81,22.86 80.31,22.86 Z M97.71,22.86 C98.61,22.86 99.415,22.65 100.125,22.23 C100.835,21.81 101.37,21.27 101.73,20.61 C101.75,20.73 101.795,20.955 101.865,21.285 C101.935,21.615 102.04,21.925 102.18,22.215 C102.32,22.505 102.57,22.65 102.93,22.65 C103.55,22.65 104.265,22.57 105.075,22.41 C105.885,22.25 106.29,22.01 106.29,21.69 C106.29,21.51 106.26,21.29 106.2,21.03 C106.12,20.45 106.055,19.92 106.005,19.44 C105.955,18.96 105.93,18.26 105.93,17.34 L105.93,0.96 C105.93,0.32 105.33,2.84217094e-13 104.13,2.84217094e-13 L104.13,2.84217094e-13 L103.29,2.84217094e-13 C102.09,2.84217094e-13 101.49,0.32 101.49,0.96 L101.49,0.96 L101.49,7.62 C100.63,7 99.61,6.69 98.43,6.69 C96.43,6.69 94.875,7.415 93.765,8.865 C92.655,10.315 92.1,12.28 92.1,14.76 C92.1,16.46 92.34,17.92 92.82,19.14 C93.3,20.36 93.965,21.285 94.815,21.915 C95.665,22.545 96.63,22.86 97.71,22.86 Z M99.03,19.23 C97.41,19.23 96.6,17.74 96.6,14.76 C96.6,11.72 97.53,10.2 99.39,10.2 C100.11,10.2 100.81,10.39 101.49,10.77 L101.49,10.77 L101.49,17.46 C100.81,18.64 99.99,19.23 99.03,19.23 Z M112.41,22.68 C113.61,22.68 114.21,22.36 114.21,21.72 L114.21,21.72 L114.21,12.09 C114.45,11.63 114.775,11.225 115.185,10.875 C115.595,10.525 116.07,10.35 116.61,10.35 C117.89,10.35 118.53,10.97 118.53,12.21 L118.53,12.21 L118.53,21.72 C118.53,22.36 119.13,22.68 120.33,22.68 L120.33,22.68 L121.17,22.68 C122.37,22.68 122.97,22.36 122.97,21.72 L122.97,21.72 L122.97,11.55 C122.97,9.89 122.595,8.665 121.845,7.875 C121.095,7.085 119.96,6.69 118.44,6.69 C117.58,6.69 116.785,6.88 116.055,7.26 C115.325,7.64 114.71,8.13 114.21,8.73 L114.21,8.73 L114.21,0.96 C114.21,0.32 113.61,2.84217094e-13 112.41,2.84217094e-13 L112.41,2.84217094e-13 L111.57,2.84217094e-13 C110.37,2.84217094e-13 109.77,0.32 109.77,0.96 L109.77,0.96 L109.77,21.72 C109.77,22.36 110.37,22.68 111.57,22.68 L111.57,22.68 L112.41,22.68 Z M133.29,22.86 C135.67,22.86 137.475,22.165 138.705,20.775 C139.935,19.385 140.55,17.38 140.55,14.76 C140.55,12.14 139.935,10.14 138.705,8.76 C137.475,7.38 135.67,6.69 133.29,6.69 C130.91,6.69 129.1,7.38 127.86,8.76 C126.62,10.14 126,12.14 126,14.76 C126,17.38 126.62,19.385 127.86,20.775 C129.1,22.165 130.91,22.86 133.29,22.86 Z M133.29,19.35 C131.43,19.35 130.5,17.82 130.5,14.76 C130.5,13.24 130.73,12.1 131.19,11.34 C131.65,10.58 132.35,10.2 133.29,10.2 C134.23,10.2 134.925,10.58 135.375,11.34 C135.825,12.1 136.05,13.24 136.05,14.76 C136.05,16.28 135.825,17.425 135.375,18.195 C134.925,18.965 134.23,19.35 133.29,19.35 Z M148.5,22.86 C150.42,22.86 151.38,22.37 151.38,21.39 C151.38,21.27 151.34,21.03 151.26,20.67 C151.18,20.31 151.07,19.98 150.93,19.68 C150.79,19.38 150.63,19.23 150.45,19.23 C150.35,19.23 150.215,19.25 150.045,19.29 C149.875,19.33 149.74,19.35 149.64,19.35 C149.26,19.35 148.985,19.25 148.815,19.05 C148.645,18.85 148.56,18.52 148.56,18.06 L148.56,18.06 L148.56,10.44 L150.03,10.44 C150.35,10.44 150.58,10.32 150.72,10.08 C150.86,9.84 150.93,9.46 150.93,8.94 L150.93,8.94 L150.93,8.43 C150.93,7.91 150.86,7.53 150.72,7.29 C150.58,7.05 150.35,6.93 150.03,6.93 L150.03,6.93 L148.56,6.93 L148.56,4.08 C148.56,3.44 148.06,3.12 147.06,3.12 L147.06,3.12 L146.13,3.12 C145.15,3.12 144.61,3.44 144.51,4.08 L144.51,4.08 L144.12,6.93 L143.64,6.93 C143.32,6.93 143.09,7.05 142.95,7.29 C142.81,7.53 142.74,7.91 142.74,8.43 L142.74,8.43 L142.74,8.94 C142.74,9.46 142.81,9.84 142.95,10.08 C143.09,10.32 143.32,10.44 143.64,10.44 L143.64,10.44 L144.12,10.44 L144.12,18 C144.12,21.24 145.58,22.86 148.5,22.86 Z M161.16,22.86 C161.8,22.86 162.55,22.78 163.41,22.62 C164.27,22.46 165.01,22.215 165.63,21.885 C166.25,21.555 166.56,21.16 166.56,20.7 C166.56,20.5 166.475,20.215 166.305,19.845 C166.135,19.475 165.925,19.145 165.675,18.855 C165.425,18.565 165.2,18.42 165,18.42 C164.88,18.42 164.66,18.5 164.34,18.66 C163.84,18.86 163.36,19.025 162.9,19.155 C162.44,19.285 161.93,19.35 161.37,19.35 C160.33,19.35 159.52,19.11 158.94,18.63 C158.36,18.15 158.02,17.34 157.92,16.2 L157.92,16.2 L165.57,16.2 C165.77,16.2 166.075,15.965 166.485,15.495 C166.895,15.025 167.1,14.67 167.1,14.43 C167.1,12.15 166.575,10.29 165.525,8.85 C164.475,7.41 162.84,6.69 160.62,6.69 C158.34,6.69 156.555,7.35 155.265,8.67 C153.975,9.99 153.33,12.06 153.33,14.88 C153.33,17.38 153.975,19.335 155.265,20.745 C156.555,22.155 158.52,22.86 161.16,22.86 Z M162.78,13.23 L157.92,13.23 C158.24,11.21 159.14,10.2 160.62,10.2 C161.34,10.2 161.88,10.475 162.24,11.025 C162.6,11.575 162.78,12.31 162.78,13.23 L162.78,13.23 Z M174.51,22.86 C176.43,22.86 177.39,22.37 177.39,21.39 C177.39,21.27 177.35,21.03 177.27,20.67 C177.19,20.31 177.08,19.98 176.94,19.68 C176.8,19.38 176.64,19.23 176.46,19.23 C176.36,19.23 176.225,19.25 176.055,19.29 C175.885,19.33 175.75,19.35 175.65,19.35 C175.27,19.35 174.995,19.25 174.825,19.05 C174.655,18.85 174.57,18.52 174.57,18.06 L174.57,18.06 L174.57,0.96 C174.57,0.32 173.97,2.84217094e-13 172.77,2.84217094e-13 L172.77,2.84217094e-13 L171.93,2.84217094e-13 C170.73,2.84217094e-13 170.13,0.32 170.13,0.96 L170.13,0.96 L170.13,18 C170.13,21.24 171.59,22.86 174.51,22.86 Z" id="Cloudhotel" fill="#114A9F"></path>
                </g>
            </g>
        </g>
    </g>
</svg>