<svg xmlns="http://www.w3.org/2000/svg" width="100" height="30" viewBox="0 0 100 30">
    <defs>
        <linearGradient id="a" x1="61.034%" x2="26.502%" y1="4.948%" y2="71.908%">
            <stop offset="0%" stop-color="#00A0FF"/>
            <stop offset="1%" stop-color="#00A1FF"/>
            <stop offset="26%" stop-color="#00BEFF"/>
            <stop offset="51%" stop-color="#00D2FF"/>
            <stop offset="76%" stop-color="#00DFFF"/>
            <stop offset="100%" stop-color="#00E3FF"/>
        </linearGradient>
        <linearGradient id="b" x1="107.684%" x2="-130.639%" y1="50%" y2="50%">
            <stop offset="0%" stop-color="#FFE000"/>
            <stop offset="41%" stop-color="#FFBD00"/>
            <stop offset="78%" stop-color="#FFA500"/>
            <stop offset="100%" stop-color="#FF9C00"/>
        </linearGradient>
        <linearGradient id="c" x1="86.219%" x2="-50.15%" y1="30.911%" y2="135.988%">
            <stop offset="0%" stop-color="#FF3A44"/>
            <stop offset="100%" stop-color="#C31162"/>
        </linearGradient>
        <linearGradient id="d" x1="-18.754%" x2="42.121%" y1="-11.831%" y2="35.095%">
            <stop offset="0%" stop-color="#32A071"/>
            <stop offset="7%" stop-color="#2DA771"/>
            <stop offset="48%" stop-color="#15CF74"/>
            <stop offset="80%" stop-color="#06E775"/>
            <stop offset="100%" stop-color="#00F076"/>
        </linearGradient>
    </defs>
    <g fill="none" fill-rule="nonzero">
        <path fill="#FFF" fill-opacity="0" d="M0 .037h76.398V29.61H0z"/>
        <rect width="100" height="30" fill="#000" rx="4"/>
        <path fill="#FFF" stroke="#FFF" stroke-width=".272" d="M36.82 7.766a1.855 1.855 0 0 1-.514 1.37c-.392.408-.94.63-1.506.61a2.157 2.157 0 0 1-1.513-3.678 2.054 2.054 0 0 1 1.513-.616c.29 0 .576.058.842.171.248.1.468.257.644.46l-.363.362a1.37 1.37 0 0 0-1.123-.486 1.588 1.588 0 0 0-1.595 1.643 1.616 1.616 0 0 0 2.738 1.184c.211-.228.333-.524.343-.835H34.8v-.493h1.992c.019.102.028.205.028.308zM39.956 6.055h-1.849v1.3h1.684v.494h-1.684v1.3h1.849v.507h-2.397V5.548h2.397zM42.201 9.656h-.527V6.055h-1.15v-.507h2.855v.507H42.2zM45.392 9.656V5.548h.527v4.108zM48.26 9.656h-.527V6.055h-1.15v-.507h2.82v.507H48.26zM54.751 9.122a2.136 2.136 0 0 1-3.012 0 2.218 2.218 0 0 1 0-3.047 2.122 2.122 0 0 1 3.012 0 2.211 2.211 0 0 1 0 3.047zM52.13 8.78a1.582 1.582 0 0 0 2.232 0 1.753 1.753 0 0 0 0-2.356 1.582 1.582 0 0 0-2.232 0 1.753 1.753 0 0 0 0 2.356zM56.1 9.656V5.548h.643l2 3.197V5.548h.52v4.108h-.548l-2.088-3.348v3.348z"/>
        <path fill="#FFF" d="M51.006 15.647a2.91 2.91 0 1 0 2.923 2.91 2.869 2.869 0 0 0-2.923-2.91zm0 4.676a1.766 1.766 0 1 1 1.643-1.766 1.684 1.684 0 0 1-1.643 1.766zm-6.374-4.676a2.91 2.91 0 1 0 2.916 2.91 2.869 2.869 0 0 0-2.923-2.91h.007zm0 4.676a1.766 1.766 0 1 1 1.636-1.766 1.684 1.684 0 0 1-1.643 1.766h.007zm-7.593-3.78v1.233h2.958a2.581 2.581 0 0 1-.685 1.554 3.026 3.026 0 0 1-2.28.904 3.286 3.286 0 0 1 0-6.573 3.15 3.15 0 0 1 2.239.884l.87-.87a4.307 4.307 0 0 0-3.102-1.28 4.526 4.526 0 1 0 0 9.044 4.108 4.108 0 0 0 3.156-1.267 4.108 4.108 0 0 0 1.068-2.889c.002-.26-.02-.518-.068-.773h-4.156v.034zm31.022.96a2.739 2.739 0 0 0-2.492-1.856 2.739 2.739 0 0 0-2.739 2.91 2.848 2.848 0 0 0 2.89 2.91 2.896 2.896 0 0 0 2.423-1.288l-.993-.684c-.301.502-.845.809-1.43.808a1.479 1.479 0 0 1-1.411-.884l3.896-1.609-.144-.308zm-3.971.972a1.595 1.595 0 0 1 1.52-1.698 1.13 1.13 0 0 1 1.082.616l-2.602 1.082zm-3.163 2.82h1.28v-8.558h-1.28v8.558zm-2.095-4.998h-.048a2.054 2.054 0 0 0-1.534-.684 2.917 2.917 0 0 0 0 5.826c.587.01 1.149-.24 1.534-.685h.04v.473c0 1.116-.595 1.712-1.553 1.712a1.609 1.609 0 0 1-1.466-1.034l-1.116.465a2.773 2.773 0 0 0 2.582 1.719c1.499 0 2.738-.883 2.738-3.033v-5.238h-1.177v.48zm-1.466 4.026a1.773 1.773 0 0 1 0-3.533 1.643 1.643 0 0 1 1.555 1.767 1.63 1.63 0 0 1-1.561 1.766h.006zm16.692-7.586h-3.06v8.558h1.28V18.05h1.787a2.663 2.663 0 1 0-.007-5.313zm0 4.108h-1.786v-2.917h1.814a1.465 1.465 0 1 1 0 2.93l-.028-.013zm7.895-1.232a2.396 2.396 0 0 0-2.28 1.307l1.136.473a1.212 1.212 0 0 1 1.164-.63 1.232 1.232 0 0 1 1.37 1.102v.09a2.828 2.828 0 0 0-1.336-.33c-1.225 0-2.464.685-2.464 1.924a1.979 1.979 0 0 0 2.122 1.883 1.8 1.8 0 0 0 1.643-.821h.041v.684h1.233v-3.293c0-1.5-1.137-2.369-2.595-2.369l-.034-.02zm-.158 4.69a.89.89 0 0 1-1-.726c0-.685.726-.91 1.37-.91.407-.01.809.088 1.164.287a1.547 1.547 0 0 1-1.5 1.37l-.034-.021zm7.278-4.485l-1.465 3.71h-.041l-1.52-3.71h-1.37l2.28 5.19-1.3 2.882h1.335l3.505-8.072h-1.424zm-11.509 5.477h1.28v-8.558h-1.28v8.558z"/>
        <path fill="url(#a)" d="M11.501 5.918a1.37 1.37 0 0 0-.315.958v15.145c-.02.348.092.69.315.959l.048.047 8.483-8.476v-.205L11.549 5.87l-.048.048z"/>
        <path fill="url(#b)" d="M22.839 17.38l-2.807-2.829v-.205l2.807-2.828.062.035 3.361 1.91c.959.54.959 1.43 0 1.979l-3.348 1.903-.075.034z"/>
        <path fill="url(#c)" d="M22.921 17.338l-2.89-2.89-8.53 8.532a1.116 1.116 0 0 0 1.424.04l10.003-5.682"/>
        <path fill="url(#d)" d="M22.921 11.56L12.918 5.876a1.116 1.116 0 0 0-1.424.04l8.538 8.532 2.89-2.89z"/>
        <path fill="#000" d="M22.839 17.276l-9.92 5.649a1.143 1.143 0 0 1-1.37 0l-.048.048.048.048c.405.305.964.305 1.37 0l10.002-5.683-.082-.062z" opacity=".2"/>
        <path fill="#000" d="M11.501 22.884a1.37 1.37 0 0 1-.315-.959v.103c-.02.348.092.69.315.958l.048-.047-.048-.055zM26.262 15.339l-3.423 1.937.062.062 3.361-1.903c.389-.183.65-.559.685-.986-.078.387-.33.715-.685.89z" opacity=".12"/>
        <path fill="#FFF" d="M12.918 5.973l13.344 7.586c.354.174.607.503.685.89a1.198 1.198 0 0 0-.685-.986L12.918 5.877c-.958-.541-1.739-.09-1.739 1.006v.103c.02-1.102.788-1.554 1.74-1.013z" opacity=".25"/>
    </g>
</svg>
