<?xml version="1.0" encoding="UTF-8"?>
<svg width="29px" height="13px" viewBox="0 0 29 13" version="1.1" xmlns="http://www.w3.org/2000/svg" xmlns:xlink="http://www.w3.org/1999/xlink">
    <!-- Generator: Sketch 62 (91390) - https://sketch.com -->
    <title>website</title>
    <desc>Created with Sketch.</desc>
    <g id="Miscellaneous" stroke="none" stroke-width="1" fill="none" fill-rule="evenodd">
        <g id="Login-/-Form" transform="translate(-259.000000, -438.000000)">
            <g id="Social-Network" transform="translate(257.000000, 436.000000)">
                <g id="website">
                    <rect id="Rectangle-Copy-5" x="0" y="0" width="32" height="16"></rect>
                    <path d="M3.65328243,13.581752 C3.34548961,13.4549353 2.79139586,13.1499755 2.43777572,12.4740644 C2.15564618,11.9003066 2,11.2420599 2,10.5439851 C2,8.23195598 4.21087572,6.34437104 6.58689638,6.34437104 C6.58689638,6.34437104 8.07003454,6.19905683 10.2660789,7.40939756 C10.0971011,7.71869019 9.93128961,8.03114907 9.76764447,8.33977512 C8.50681039,10.7182955 7.20648151,13.1964693 4.72497474,13.6604083 C4.42134803,13.7170675 3.90674908,13.6860716 3.65328243,13.581752 Z M16.6712693,14.2004872 C15.3966037,14.5389427 14.1354364,14.5389427 13.1260692,14.5389427 C10.0929683,14.5389427 7.66778747,14.5377762 5.93818175,14.5377762 C4.94214616,14.5377762 4.21007583,14.3546336 3.55866155,13.837035 C3.85962195,14.0220107 4.38072004,14.0883353 4.79266583,14.0081792 C8.37086162,13.3114375 9.57170359,8.90751708 11.493784,6.03756142 C12.79078,4.10064964 14.6217057,2.4525332 16.9872277,2.08258188 C19.0539558,1.75929109 21.1645114,2.39787372 22.7324717,3.7760257 C24.1286213,5.00303089 25.1831492,6.61131925 25.9087204,8.31909451 C25.7464084,8.30126352 25.5805969,8.28909846 25.4076196,8.28909846 C25.2786366,8.28909846 25.1471539,8.29459774 25.0166711,8.30542964 C23.3823862,8.44024524 22.0678925,9.19431267 20.7540654,10.7504412 C20.6354143,10.8910894 20.5162633,11.0342372 20.3962791,11.1785516 C19.3345855,12.4552169 18.2392296,13.784042 16.6712693,14.2004872 Z M30.2302017,14.5413424 C28.5412573,14.5413424 19.7829098,14.5423422 16.7639738,14.5423422 C18.6238957,14.0374087 19.8444017,12.3771272 21.0247464,10.9791445 C22.1106035,9.69264709 23.32761,8.80009788 25.0458839,8.65844985 C26.689001,8.52296768 27.9983287,9.31852966 28.9075424,10.4575464 C29.7680958,11.5352379 30.3838481,12.9572175 30.612818,13.9619186 C30.6796425,14.25538 30.5154975,14.5413424 30.2302017,14.5413424 Z" id="Shape" fill="#FFFFFF"></path>
                </g>
            </g>
        </g>
    </g>
</svg>