<?xml version="1.0" encoding="UTF-8"?>
<svg width="16px" height="12px" viewBox="0 0 16 12" version="1.1" xmlns="http://www.w3.org/2000/svg" xmlns:xlink="http://www.w3.org/1999/xlink">
    <!-- Generator: Sketch 62 (91390) - https://sketch.com -->
    <title>youtube</title>
    <desc>Created with Sketch.</desc>
    <g id="Miscellaneous" stroke="none" stroke-width="1" fill="none" fill-rule="evenodd">
        <g id="Login-/-Form" transform="translate(-353.000000, -438.000000)">
            <g id="Social-Network" transform="translate(257.000000, 436.000000)">
                <g id="youtube" transform="translate(96.000000, 0.000000)">
                    <path d="M15.8666667,4.4 C15.8666667,4.4 15.7333333,3.26666667 15.2,2.8 C14.6,2.13333333 13.9333333,2.13333333 13.6,2.13333333 C11.3333333,2 8,2 8,2 L8,2 C8,2 4.66666667,2 2.4,2.13333333 C2.06666667,2.2 1.4,2.2 0.8,2.8 C0.333333333,3.26666667 0.133333333,4.4 0.133333333,4.4 C0.133333333,4.4 0,5.66666667 0,7 L0,8.2 C0,9.46666667 0.133333333,10.8 0.133333333,10.8 C0.133333333,10.8 0.266666667,11.9333333 0.8,12.4 C1.4,13.0666667 2.2,13 2.53333333,13.0666667 C3.8,13.2 8,13.2 8,13.2 C8,13.2 11.3333333,13.2 13.6,13 C13.9333333,12.9333333 14.6,12.9333333 15.2,12.3333333 C15.6666667,11.8666667 15.8666667,10.7333333 15.8666667,10.7333333 C15.8666667,10.7333333 16,9.46666667 16,8.13333333 L16,6.93333333 C16,5.66666667 15.8666667,4.4 15.8666667,4.4 Z M6.33333333,9.66666667 L6.33333333,5.2 L10.6666667,7.46666667 L6.33333333,9.66666667 Z" id="Shape" fill="#FFFFFF"></path>
                    <rect id="Rectangle" x="0" y="0" width="16" height="16"></rect>
                </g>
            </g>
        </g>
    </g>
</svg>